<?xml version="1.0" standalone="no"?>
<!DOCTYPE svg PUBLIC "-//W3C//DTD SVG 20010904//EN"
 "http://www.w3.org/TR/2001/REC-SVG-20010904/DTD/svg10.dtd">
<svg version="1.0" xmlns="http://www.w3.org/2000/svg"
 width="512.000000pt" height="512.000000pt" viewBox="0 0 512.000000 512.000000"
 preserveAspectRatio="xMidYMid meet">

<g transform="translate(0.000000,512.000000) scale(0.100000,-0.100000)"
fill="#000000" stroke="none">
<path d="M0 2560 l0 -2560 2560 0 2560 0 0 2560 0 2560 -2560 0 -2560 0 0
-2560z m2718 1575 c39 -19 125 -65 189 -103 65 -38 269 -156 453 -262 561
-323 555 -318 609 -430 l26 -55 0 -720 0 -720 -27 -55 c-49 -99 -94 -132 -518
-376 -217 -125 -456 -263 -530 -306 -232 -136 -250 -143 -360 -143 -110 0
-128 7 -360 143 -131 76 -529 306 -795 459 -148 85 -214 144 -253 223 l-27 55
0 720 0 720 26 55 c54 112 47 107 609 430 184 106 398 230 475 275 199 115
223 124 325 125 77 0 93 -3 158 -35z"/>
<path d="M3165 3016 c-46 -13 -85 -63 -85 -108 0 -35 37 -75 77 -83 84 -19
103 -41 51 -59 -23 -8 -33 -6 -58 12 -28 21 -32 21 -65 8 -36 -15 -40 -22 -29
-51 18 -46 145 -64 217 -30 45 21 58 42 60 95 2 52 -25 79 -94 94 -42 10 -54
17 -54 32 0 26 50 32 75 9 21 -19 78 -12 86 10 9 22 -16 56 -51 71 -41 17 -76
17 -130 0z"/>
<path d="M1827 3013 c-6 -9 -57 -291 -57 -312 0 -8 14 -11 43 -9 l42 3 16 90
c9 50 17 83 18 74 1 -10 17 -51 37 -93 l37 -77 41 3 41 3 22 120 c12 66 24
139 28 163 l6 43 -43 -3 -43 -3 -14 -82 -14 -83 -36 83 -37 82 -41 3 c-23 2
-43 -1 -46 -5z"/>
<path d="M2262 2988 c-11 -18 -45 -82 -77 -143 -32 -60 -62 -114 -66 -120 -20
-21 -8 -35 30 -35 37 0 71 19 71 41 0 5 24 9 54 9 49 0 55 -2 58 -22 2 -19 10
-24 42 -26 21 -2 42 0 46 5 5 4 -5 78 -21 163 -16 85 -29 156 -29 158 0 1 -20
2 -44 2 -39 0 -47 -4 -64 -32z m50 -120 c5 -47 5 -48 -23 -48 l-28 0 22 49
c12 27 23 48 23 47 1 0 4 -22 6 -48z"/>
<path d="M2545 3008 c-6 -18 -55 -286 -55 -304 0 -17 75 -20 85 -4 4 6 9 45
12 86 6 80 13 84 32 17 11 -40 14 -43 45 -43 30 0 38 7 76 63 24 34 39 53 35
42 -16 -44 -35 -122 -35 -148 0 -27 2 -28 43 -25 l42 3 27 150 c14 83 27 156
27 163 1 8 -14 12 -42 12 -43 0 -43 -1 -96 -80 -30 -44 -55 -80 -57 -80 -1 0
-14 36 -29 80 l-27 80 -39 0 c-23 0 -42 -5 -44 -12z"/>
<path d="M2956 2990 c-3 -16 -9 -44 -12 -61 -6 -29 -5 -30 27 -27 28 3 33 8
45 48 20 65 18 70 -20 70 -30 0 -35 -4 -40 -30z"/>
<path d="M1952 2608 c-31 -7 -58 -23 -92 -56 -42 -42 -50 -55 -64 -120 -39
-173 -31 -242 32 -290 30 -23 47 -28 114 -31 116 -5 192 30 233 108 16 33 38
157 30 172 -4 5 -53 9 -110 9 -117 0 -125 -5 -125 -74 0 -36 0 -36 45 -36 51
0 55 -7 22 -38 -28 -26 -98 -30 -117 -7 -14 17 -10 81 10 173 11 47 16 56 45
68 48 20 91 9 105 -27 14 -34 14 -34 70 -14 63 22 70 30 59 67 -25 88 -125
126 -257 96z"/>
<path d="M2296 2601 c-4 -5 20 -74 52 -153 l58 -143 -12 -65 c-7 -36 -13 -77
-13 -92 -1 -28 0 -28 63 -28 73 0 68 -7 86 110 13 80 10 75 182 297 26 34 48
67 48 73 0 13 -115 13 -138 1 -9 -5 -39 -41 -67 -80 -27 -39 -52 -71 -55 -71
-3 0 -16 30 -29 68 -12 37 -28 73 -33 80 -12 14 -134 17 -142 3z"/>
<path d="M2857 2603 c-9 -14 -87 -441 -87 -472 0 -8 19 -11 63 -9 l62 3 13 50
c7 28 16 91 21 140 4 50 9 78 10 64 2 -37 41 -153 55 -161 6 -4 25 -8 41 -8
41 0 46 4 101 91 27 42 55 85 61 95 7 11 4 -3 -6 -31 -19 -52 -51 -193 -51
-226 0 -17 8 -19 64 -19 62 0 65 1 70 28 30 147 76 438 72 449 -4 10 -21 13
-63 11 l-58 -3 -78 -115 c-43 -63 -81 -116 -86 -118 -4 -1 -20 39 -36 90 -44
146 -46 148 -110 148 -29 0 -56 -3 -58 -7z"/>
</g>
</svg>
