<?xml version="1.0" standalone="no"?>
<!DOCTYPE svg PUBLIC "-//W3C//DTD SVG 20010904//EN"
 "http://www.w3.org/TR/2001/REC-SVG-20010904/DTD/svg10.dtd">
<svg version="1.0" xmlns="http://www.w3.org/2000/svg"
 width="512.000000pt" height="512.000000pt" viewBox="0 0 512.000000 512.000000"
 preserveAspectRatio="xMidYMid meet">
<metadata>
Created by potrace 1.14, written by Peter Selinger 2001-2017
</metadata>
<g transform="translate(0.000000,512.000000) scale(0.100000,-0.100000)"
fill="#000000" stroke="none">
<path d="M3963 3666 c-111 -28 -170 -96 -180 -205 -13 -146 57 -235 242 -306
52 -20 98 -41 101 -46 11 -18 -18 -39 -52 -39 -34 0 -64 21 -64 46 0 11 -21
14 -110 14 l-110 0 0 -98 c0 -90 2 -100 23 -120 52 -49 329 -73 440 -38 117
36 185 128 187 252 1 134 -58 198 -242 264 -102 37 -123 55 -83 70 33 12 68 4
91 -21 14 -16 31 -19 93 -19 109 1 115 8 108 112 -6 93 -11 99 -92 124 -68 22
-283 28 -352 10z"/>
<path d="M690 3585 c0 -54 4 -85 11 -85 6 0 17 -6 25 -14 11 -12 14 -56 14
-225 l0 -211 -25 0 c-24 0 -25 -2 -25 -76 0 -61 4 -79 18 -90 25 -20 278 -19
298 0 10 10 14 38 14 90 0 70 -1 75 -22 78 -22 3 -23 9 -26 88 -4 98 4 153 20
148 7 -3 66 -88 132 -190 67 -102 130 -195 140 -207 17 -19 30 -21 135 -21 81
1 121 5 134 14 15 12 17 39 17 300 0 236 3 290 14 302 8 8 20 14 26 14 7 0 10
27 8 83 l-3 82 -162 3 -163 2 0 -81 c0 -69 3 -83 20 -97 19 -15 21 -26 18
-112 l-3 -94 -125 189 -125 190 -182 3 -183 2 0 -85z"/>
<path d="M1837 3663 c-3 -5 -39 -134 -81 -288 -86 -315 -90 -325 -111 -325
-21 0 -22 -145 -1 -166 11 -11 47 -14 156 -14 109 0 145 3 156 14 10 10 14 38
14 90 0 74 -1 76 -24 76 -31 0 -36 8 -25 38 7 20 15 22 73 22 56 0 66 -3 71
-20 8 -26 -1 -40 -26 -40 -17 0 -19 -7 -19 -76 0 -52 4 -80 14 -90 20 -20 332
-20 359 0 13 11 17 29 17 90 0 68 -2 76 -19 76 -11 0 -22 8 -25 18 -3 9 -34
124 -70 254 -36 131 -73 262 -81 293 l-16 55 -179 0 c-98 0 -181 -3 -183 -7z
m184 -346 l17 -77 -45 0 c-38 0 -44 3 -39 18 3 9 10 45 17 80 7 35 16 61 22
59 6 -2 19 -38 28 -80z"/>
<path d="M2440 3587 c0 -79 1 -84 25 -97 l25 -14 -2 -210 c-3 -210 -3 -211
-25 -214 -22 -3 -23 -8 -23 -79 0 -60 4 -78 18 -89 25 -20 278 -19 298 0 10
10 14 38 14 90 0 70 -1 75 -22 78 -22 3 -23 7 -26 131 -1 70 1 135 6 143 6 11
30 -45 82 -198 40 -117 79 -223 87 -235 11 -20 22 -23 73 -23 51 0 62 3 74 23
7 12 44 115 81 229 36 114 71 210 76 213 5 4 9 -52 9 -139 0 -136 -1 -146 -19
-146 -14 0 -20 -10 -25 -37 -11 -69 -7 -115 12 -129 21 -16 342 -20 342 -4 0
6 7 10 15 10 17 0 19 35 9 114 -5 36 -11 46 -25 46 -18 0 -19 12 -19 213 l0
212 25 19 c27 20 30 44 19 130 l-7 46 -216 0 -217 0 -49 -150 c-27 -82 -52
-146 -56 -142 -4 4 -28 71 -54 150 l-47 142 -229 0 -229 0 0 -83z"/>
<path d="M3597 3663 c-4 -3 -7 -32 -7 -62 0 -45 4 -59 20 -68 18 -12 18 -16 5
-52 -13 -38 -13 -39 13 -51 30 -13 42 -3 89 77 22 38 24 50 18 103 l-7 60 -62
0 c-35 0 -66 -3 -69 -7z"/>
<path d="M1503 2295 c-191 -52 -274 -188 -261 -428 13 -220 124 -349 326 -377
126 -17 321 15 365 61 13 14 17 36 17 103 0 78 2 86 25 104 22 18 25 27 25 91
l0 71 -174 0 -173 0 -7 -46 c-9 -68 -7 -104 5 -104 16 0 39 -26 39 -44 0 -25
-46 -49 -77 -41 -53 13 -53 14 -53 216 0 210 0 209 73 209 43 0 67 -26 67 -72
0 -23 5 -38 16 -42 20 -8 198 -8 218 0 13 5 16 26 16 130 l0 124 -36 15 c-103
43 -307 58 -411 30z"/>
<path d="M1986 2254 c-12 -89 -8 -106 28 -139 19 -16 73 -97 120 -178 79 -136
86 -153 86 -202 0 -48 -2 -54 -22 -57 -21 -3 -23 -9 -26 -80 -2 -65 0 -78 13
-78 8 0 15 -4 15 -10 0 -6 61 -10 163 -10 201 1 199 0 195 101 -3 68 -5 74
-25 77 -21 3 -23 9 -23 56 0 47 8 68 87 208 54 97 97 162 115 174 27 18 28 22
28 102 l0 82 -155 0 -155 0 0 -85 c0 -50 4 -85 10 -85 6 0 10 -9 10 -19 0 -29
-41 -131 -51 -126 -4 3 -17 35 -29 71 -21 61 -21 68 -6 76 17 10 20 45 10 122
l-7 46 -187 0 -187 0 -7 -46z"/>
<path d="M2770 2217 c0 -79 1 -84 25 -97 l25 -14 -2 -210 c-3 -210 -3 -211
-25 -214 -22 -3 -23 -8 -23 -79 0 -102 1 -102 165 -102 164 0 165 0 165 102 0
71 -1 76 -22 79 -22 3 -23 7 -26 131 -1 70 1 135 6 143 6 11 30 -45 82 -198
40 -117 79 -223 87 -235 11 -20 22 -23 73 -23 51 0 62 3 74 23 8 12 44 115 80
229 37 114 71 210 76 213 6 4 10 -47 10 -139 0 -136 -1 -146 -19 -146 -20 0
-31 -40 -31 -117 0 -32 4 -43 15 -43 8 0 15 -4 15 -10 0 -6 62 -10 165 -10
103 0 165 4 165 10 0 6 7 10 15 10 17 0 19 35 9 114 -5 36 -11 46 -25 46 -18
0 -19 12 -19 213 l0 212 25 19 c27 20 30 44 19 130 l-7 46 -216 0 -217 0 -49
-150 c-27 -82 -52 -146 -56 -142 -4 4 -28 71 -54 150 l-47 142 -229 0 -229 0
0 -83z"/>
</g>
</svg>
