<?xml version="1.0" standalone="no"?>
<!DOCTYPE svg PUBLIC "-//W3C//DTD SVG 20010904//EN"
 "http://www.w3.org/TR/2001/REC-SVG-20010904/DTD/svg10.dtd">
<svg version="1.0" xmlns="http://www.w3.org/2000/svg"
 width="780.000000pt" height="720.000000pt" viewBox="0 0 780.000000 720.000000"
 preserveAspectRatio="xMidYMid meet">

<g transform="translate(0.000000,720.000000) scale(0.100000,-0.100000)"
fill="#000000" stroke="none">
<path d="M3780 5460 c-503 -62 -950 -332 -1229 -740 -65 -96 -110 -175 -146
-255 l-24 -55 109 0 109 0 27 48 c162 290 388 508 669 647 148 74 242 106 388
134 427 82 859 -19 1209 -282 151 -114 317 -305 410 -474 l40 -73 109 0 c60 0
109 3 109 6 0 20 -131 253 -183 326 -271 378 -656 620 -1118 704 -103 18 -377
26 -479 14z"/>
<path d="M3920 5086 c0 -44 4 -76 10 -76 6 0 10 17 11 38 l1 37 15 -37 c9 -21
20 -38 24 -38 5 0 9 34 9 75 0 43 -4 75 -10 75 -5 0 -10 -17 -11 -37 l-1 -38
-12 34 c-22 62 -36 50 -36 -33z"/>
<path d="M3824 5104 c3 -26 6 -60 6 -75 0 -19 5 -29 15 -29 12 0 14 9 10 43
-13 92 -16 107 -27 107 -7 0 -9 -16 -4 -46z"/>
<path d="M4066 5119 c-9 -45 -7 -107 3 -113 8 -5 21 70 21 122 0 33 -17 27
-24 -9z"/>
<path d="M4165 5128 c-2 -7 -8 -39 -13 -70 -7 -47 -6 -58 5 -58 8 0 13 12 13
30 0 17 5 30 10 30 6 0 10 -16 10 -35 0 -23 5 -35 14 -35 9 0 17 21 24 68 5
37 7 71 5 76 -8 12 -23 -15 -24 -44 -1 -27 -4 -22 -13 23 -7 28 -24 36 -31 15z"/>
<path d="M3700 5055 c0 -43 4 -75 10 -75 6 0 10 6 10 14 0 24 20 29 35 10 25
-35 25 -8 -2 59 -36 91 -53 88 -53 -8z m33 5 c3 -11 1 -20 -4 -20 -5 0 -9 9
-9 20 0 11 2 20 4 20 2 0 6 -9 9 -20z"/>
<path d="M4313 5098 c-20 -25 -35 -109 -22 -124 19 -23 48 -17 59 12 14 36 12
54 -5 54 -9 0 -15 -6 -14 -12 3 -25 -1 -38 -12 -38 -16 0 -4 70 16 89 13 14
15 14 15 -2 0 -9 5 -17 11 -17 6 0 9 10 7 23 -3 25 -39 35 -55 15z"/>
<path d="M3557 5093 c-10 -3 -16 -10 -14 -16 2 -7 13 -38 23 -69 19 -62 40
-79 30 -25 l-6 32 25 -30 c28 -34 45 -27 21 9 -9 14 -16 38 -16 54 0 44 -18
57 -63 45z m39 -50 c-7 -17 -8 -17 -17 0 -12 21 -2 44 13 29 6 -6 8 -19 4 -29z"/>
<path d="M3443 5048 c-26 -12 -30 -28 -9 -28 7 0 24 -25 36 -55 12 -30 26 -55
31 -55 13 0 11 12 -13 70 -16 39 -19 55 -10 58 7 2 10 8 6 13 -6 11 -13 11
-41 -3z"/>
<path d="M4526 5018 c-32 -49 -48 -99 -35 -114 17 -20 47 -17 59 6 9 16 8 20
-5 20 -8 0 -15 -4 -15 -10 0 -5 -4 -10 -10 -10 -16 0 -11 33 10 68 20 32 47
45 37 17 -4 -8 -2 -17 3 -20 5 -3 12 5 16 17 4 15 1 25 -12 35 -24 18 -31 17
-48 -9z"/>
<path d="M4626 4919 c-20 -33 -36 -62 -36 -64 0 -3 14 -11 30 -20 31 -16 41
-7 16 15 -20 16 -8 43 15 37 23 -6 36 11 15 19 -12 5 -13 10 -5 25 8 15 14 17
29 9 15 -8 20 -8 20 3 0 8 -11 19 -24 25 -23 10 -27 7 -60 -49z"/>
<path d="M3247 4948 c-16 -12 -14 -18 19 -73 43 -71 42 -70 51 -62 3 4 1 18
-5 32 -9 19 -9 30 0 45 9 14 9 25 0 44 -13 28 -38 33 -65 14z m48 -48 c-5 -8
-11 -6 -20 7 -17 23 -7 39 12 20 9 -8 12 -20 8 -27z"/>
<path d="M4733 4850 c-44 -62 -43 -94 1 -38 29 37 32 33 12 -17 -10 -22 -11
-37 -5 -41 10 -6 14 -2 69 73 33 46 25 70 -10 26 l-21 -28 7 25 c21 74 -1 74
-53 0z"/>
<path d="M3150 4884 c0 -4 16 -29 36 -56 20 -27 33 -52 29 -56 -6 -7 -37 23
-68 69 -9 11 -20 18 -26 14 -12 -7 48 -93 75 -108 18 -11 44 9 44 33 0 20 -66
110 -80 110 -6 0 -10 -3 -10 -6z"/>
<path d="M3957 4826 c-15 -32 -21 -36 -54 -36 l-38 -1 29 -25 c25 -22 28 -30
22 -66 l-7 -40 34 21 33 20 33 -20 33 -20 -6 37 c-6 31 -4 41 20 65 l28 29
-26 0 c-35 0 -58 10 -58 24 0 7 -6 20 -13 30 -12 16 -14 14 -30 -18z"/>
<path d="M3703 4800 c-9 -25 -17 -30 -44 -30 l-32 0 23 -25 c17 -19 21 -31 17
-55 l-7 -30 31 16 c28 14 33 14 56 -2 l26 -16 -7 33 c-5 28 -2 36 21 56 l28
22 -37 1 c-31 0 -37 4 -47 30 -5 17 -11 30 -13 30 -2 0 -9 -13 -15 -30z"/>
<path d="M4221 4802 c-11 -26 -19 -32 -44 -32 l-30 0 22 -24 c18 -20 22 -31
16 -56 l-7 -32 29 17 c29 17 31 17 58 -1 l27 -18 -7 33 c-6 26 -3 37 16 57
l22 24 -29 0 c-24 0 -33 7 -45 32 l-15 31 -13 -31z"/>
<path d="M4884 4804 c4 -10 -8 -32 -34 -61 -22 -25 -37 -50 -33 -56 3 -6 23 9
44 34 21 24 43 45 51 45 7 1 17 2 22 3 12 1 -34 51 -47 51 -5 0 -6 -7 -3 -16z"/>
<path d="M3020 4769 c-10 -17 -6 -27 25 -65 30 -36 43 -44 64 -42 42 5 40 43
-5 89 -43 44 -68 49 -84 18z m69 -38 c33 -46 24 -58 -14 -21 -38 37 -43 50
-21 50 8 0 24 -13 35 -29z"/>
<path d="M4942 4685 c-57 -51 -61 -63 -34 -88 21 -19 38 -11 21 9 -6 8 -9 21
-5 29 6 17 36 21 36 4 0 -5 4 -8 9 -5 5 3 7 15 4 25 -6 23 14 38 30 22 28 -28
35 -7 9 27 l-18 23 -52 -46z"/>
<path d="M2924 4669 c-19 -21 -19 -21 36 -69 55 -50 90 -58 48 -12 -14 15 -17
23 -8 20 49 -17 60 -19 60 -8 0 6 -13 16 -30 21 -16 6 -30 17 -30 24 0 13 -37
45 -51 45 -3 0 -14 -10 -25 -21z m46 -25 c0 -9 -5 -14 -12 -12 -18 6 -21 28
-4 28 9 0 16 -7 16 -16z"/>
<path d="M5017 4584 c-57 -45 -72 -83 -16 -44 34 25 37 19 9 -17 -29 -37 -12
-52 19 -15 14 16 36 33 48 36 29 9 37 34 18 62 -9 13 -16 24 -18 24 -1 -1 -28
-21 -60 -46z m54 -17 c-16 -16 -26 0 -10 19 9 11 15 12 17 4 2 -6 -1 -17 -7
-23z"/>
<path d="M2842 4568 c-22 -22 -13 -44 33 -77 48 -35 71 -37 89 -8 9 15 6 23
-18 43 -22 20 -31 22 -42 13 -16 -13 -10 -24 13 -24 9 0 18 -6 20 -12 7 -19
-15 -16 -48 8 -32 23 -38 39 -13 39 19 0 13 24 -7 28 -8 1 -20 -3 -27 -10z"/>
<path d="M3568 4520 c-39 -12 -98 -49 -98 -63 0 -6 10 -1 23 10 36 33 85 45
212 53 l120 7 -115 1 c-63 0 -127 -3 -142 -8z"/>
<path d="M4152 4522 c-8 -5 9 -7 41 -4 63 5 78 -7 46 -39 -12 -12 -19 -29 -16
-40 3 -13 -5 -24 -27 -38 -17 -12 -27 -21 -23 -21 4 0 19 7 33 16 24 16 26 16
59 -16 19 -19 35 -43 35 -54 0 -27 10 -15 16 20 3 16 18 56 35 90 31 67 33 74
20 74 -7 0 -46 -80 -65 -134 -6 -18 -8 -17 -35 8 l-28 27 28 29 c17 17 27 35
23 44 -9 23 64 38 172 34 51 -2 89 1 85 5 -5 5 -62 6 -127 3 -152 -7 -150 -7
-209 -1 -27 3 -56 2 -63 -3z m133 -42 c6 -10 -29 -50 -45 -50 -15 0 -12 27 6
44 18 18 30 20 39 6z"/>
<path d="M3597 4453 c-14 -32 -29 -71 -33 -86 -6 -27 -7 -28 -28 -10 -21 18
-21 18 -3 -3 9 -11 17 -37 17 -57 0 -27 4 -37 16 -37 13 0 15 7 10 43 -5 35
-1 54 29 115 36 77 41 92 26 92 -4 0 -20 -26 -34 -57z m-30 -175 c-3 -7 -5 -2
-5 12 0 14 2 19 5 13 2 -7 2 -19 0 -25z"/>
<path d="M4109 4493 c-13 -16 -12 -17 4 -4 16 13 21 21 13 21 -2 0 -10 -8 -17
-17z"/>
<path d="M4148 4466 c-13 -30 -23 -33 -37 -8 -6 9 -11 13 -11 8 0 -5 7 -17 16
-27 14 -15 14 -20 -2 -55 -9 -22 -18 -48 -20 -59 l-4 -20 11 20 c6 11 19 26
27 33 11 8 12 12 3 12 -8 0 -2 19 18 55 18 31 26 57 21 60 -6 3 -15 -5 -22
-19z"/>
<path d="M3815 4397 c-18 -21 -23 -67 -7 -67 3 0 19 12 34 27 15 15 28 21 28
15 0 -9 5 -10 19 -2 13 7 22 7 26 0 3 -5 11 -10 16 -10 6 0 3 7 -5 16 -9 8
-20 13 -25 10 -5 -4 -11 0 -14 6 -3 9 -15 3 -36 -16 -32 -31 -39 -29 -20 5 16
31 6 41 -16 16z"/>
<path d="M3630 4395 c-15 -18 -10 -47 10 -52 13 -4 13 -3 0 6 -13 10 -12 14 8
29 13 10 20 21 16 25 -11 11 -20 9 -34 -8z"/>
<path d="M3733 4398 c-35 -9 -48 -22 -38 -39 5 -7 14 -4 27 7 17 16 21 16 30
4 8 -13 9 -12 5 2 -3 9 -1 19 6 21 25 9 0 14 -30 5z"/>
<path d="M1850 4370 c0 -7 245 -10 716 -10 474 0 713 3 709 10 -4 7 -253 10
-716 10 -466 0 -709 -3 -709 -10z"/>
<path d="M4680 4370 c0 -7 245 -10 715 -10 470 0 715 3 715 10 0 7 -245 10
-715 10 -470 0 -715 -3 -715 -10z"/>
<path d="M1850 4305 l0 -25 715 0 715 0 0 25 0 25 -715 0 -715 0 0 -25z"/>
<path d="M4680 4305 l0 -25 715 0 715 0 0 25 0 25 -715 0 -715 0 0 -25z"/>
<path d="M1800 4065 l0 -85 45 0 45 0 0 -83 c0 -79 -1 -85 -30 -112 l-30 -29
30 -31 30 -31 0 -182 0 -182 95 0 95 0 0 184 c0 155 2 186 16 197 11 9 20 10
32 2 14 -8 18 -34 22 -151 6 -157 15 -181 81 -214 48 -25 200 -25 248 0 66 33
75 57 81 209 3 89 9 138 16 140 8 3 13 -36 16 -129 4 -151 17 -187 78 -219 32
-17 61 -19 342 -19 l308 0 0 85 0 85 -70 0 -70 0 0 85 0 85 65 0 65 0 0 85 0
85 -65 0 -65 0 0 70 0 70 105 0 105 0 0 -78 c0 -74 -2 -80 -30 -107 -16 -16
-30 -34 -30 -40 0 -6 14 -24 30 -40 l30 -29 0 -178 0 -178 90 0 90 0 0 184 c0
151 3 186 15 196 12 10 18 10 30 0 12 -10 15 -45 15 -196 l0 -184 90 0 90 0 2
167 c3 151 5 168 21 171 16 3 17 -10 17 -167 l0 -171 90 0 90 0 0 179 c0 137
3 181 13 190 8 6 17 8 20 4 4 -3 7 -89 7 -190 l0 -183 260 0 259 0 3 108 3
107 13 -60 c8 -33 18 -81 24 -107 l10 -48 90 0 c88 0 90 0 85 23 -3 12 -19 92
-36 177 l-30 156 24 49 c23 44 25 60 25 172 0 135 -9 171 -55 213 l-27 25
-324 3 -324 3 0 -169 c0 -93 -3 -172 -7 -175 -3 -4 -12 -2 -20 4 -10 9 -13 50
-13 175 l0 164 -90 0 -90 0 0 -155 c0 -148 -1 -155 -20 -155 -19 0 -20 7 -20
155 l0 155 -410 0 -410 0 -1 -77 c-1 -71 -2 -74 -10 -38 -19 82 -75 115 -191
115 -156 0 -190 -38 -196 -222 -3 -82 -8 -118 -16 -115 -7 2 -13 49 -16 128
-7 184 -32 209 -208 209 -89 0 -103 -2 -136 -25 -20 -14 -39 -25 -41 -25 -3 0
-5 11 -5 25 l0 25 -185 0 -185 0 0 -85z m340 0 l0 -55 -45 0 -45 0 0 -102 c0
-95 2 -104 25 -128 l25 -26 -25 -24 c-25 -23 -25 -25 -25 -197 l0 -173 -65 0
-65 0 0 173 c0 161 -1 175 -20 192 -11 10 -20 23 -20 30 0 7 9 20 20 30 18 16
20 31 20 122 l0 103 -45 0 -45 0 0 55 0 55 155 0 155 0 0 -55z m335 43 c45
-21 59 -61 63 -190 3 -99 7 -119 23 -134 18 -16 20 -16 38 0 16 15 20 35 23
139 5 176 24 197 173 197 75 0 87 -3 114 -26 35 -29 51 -76 51 -151 l0 -53
-65 0 -65 0 0 54 c0 46 -3 56 -20 61 -11 3 -29 3 -40 0 -20 -6 -20 -13 -18
-263 l3 -257 38 -3 37 -3 0 105 0 106 -25 0 c-24 0 -25 3 -25 60 l0 60 90 0
90 0 0 -225 0 -225 -125 0 c-198 0 -208 11 -213 212 -3 119 -6 139 -23 154
-18 16 -20 16 -39 -1 -18 -16 -20 -31 -20 -129 0 -129 -10 -173 -46 -207 -23
-21 -36 -24 -124 -27 -168 -6 -190 18 -190 214 0 123 -1 129 -25 154 l-25 26
25 24 c24 22 25 29 25 137 0 122 10 158 52 187 28 20 203 22 243 4z m815 -43
l0 -55 -70 0 -70 0 0 -100 0 -100 65 0 65 0 0 -60 0 -60 -65 0 -65 0 0 -105 0
-105 70 0 70 0 0 -60 0 -60 -135 0 -135 0 0 172 c0 170 0 172 -25 198 l-25 26
25 24 c25 23 25 26 25 182 l0 158 135 0 135 0 0 -55z m350 0 l0 -55 -50 0 -50
0 0 -102 c0 -95 2 -104 25 -128 l25 -26 -25 -24 c-25 -23 -25 -25 -25 -197 l0
-173 -65 0 -65 0 0 173 c0 161 -1 175 -20 192 -11 10 -20 23 -20 30 0 7 9 20
20 30 18 16 20 31 20 122 l0 103 -45 0 -45 0 0 55 0 55 160 0 160 0 0 -55z
m150 -100 l0 -155 45 0 45 0 0 155 0 155 65 0 65 0 0 -157 c0 -147 1 -158 22
-180 l22 -23 23 22 c22 21 23 27 23 180 l0 158 135 0 135 0 0 -55 0 -55 -70 0
-70 0 0 -100 0 -100 65 0 65 0 0 -60 0 -60 -65 0 -65 0 0 -105 0 -105 70 0 70
0 0 -60 0 -60 -135 0 -135 0 0 172 c0 163 -1 173 -22 195 l-22 23 -23 -22
c-22 -21 -23 -26 -23 -195 l0 -173 -65 0 -65 0 0 165 0 165 -45 0 -45 0 0
-165 0 -165 -65 0 -65 0 0 172 c0 170 0 172 -25 198 l-25 26 25 24 c25 23 25
26 25 182 l0 158 65 0 65 0 0 -155z m942 126 l33 -29 3 -144 c3 -140 3 -144
-23 -182 l-26 -38 34 -169 34 -169 -61 0 -62 0 -28 148 c-35 184 -34 182 -52
182 -12 0 -14 -28 -14 -165 l0 -165 -65 0 -65 0 0 172 c0 170 0 172 -25 198
l-25 26 25 24 c25 23 25 26 25 182 l0 158 130 0 c129 0 130 0 162 -29z m-2582
-193 c0 -62 -4 -86 -17 -100 -15 -17 -17 -17 -35 -2 -15 14 -18 32 -18 101 l0
83 35 0 35 0 0 -82z m650 22 l0 -60 95 0 c57 0 95 -4 95 -10 0 -6 -42 -10
-105 -10 l-105 0 0 70 c0 40 4 70 10 70 6 0 10 -27 10 -60z m830 -24 c0 -62
-4 -87 -15 -96 -12 -10 -18 -10 -30 0 -11 9 -15 34 -15 96 l0 84 30 0 30 0 0
-84z m780 0 c0 -47 -4 -88 -10 -91 -5 -3 -10 3 -10 14 0 19 -6 21 -65 21 l-65
0 0 70 0 70 75 0 75 0 0 -84z m0 -297 l0 -99 -75 0 -75 0 0 85 0 85 65 0 c59
0 65 2 65 21 0 11 5 17 10 14 6 -3 10 -50 10 -106z m-1610 -14 c0 -50 -4 -85
-10 -85 -6 0 -10 35 -10 85 0 50 4 85 10 85 6 0 10 -35 10 -85z"/>
<path d="M1850 4065 c0 -35 0 -35 45 -35 l45 0 0 -110 0 -110 45 0 45 0 0 110
0 110 50 0 50 0 0 35 0 35 -140 0 -140 0 0 -35z"/>
<path d="M1917 3772 c-16 -17 -15 -20 6 -40 33 -31 96 -30 125 1 22 23 22 24
4 40 -26 24 -113 23 -135 -1z"/>
<path d="M1940 3535 l0 -155 45 0 45 0 0 155 0 155 -45 0 -45 0 0 -155z"/>
<path d="M2226 4069 c-25 -29 -26 -36 -26 -145 l0 -115 43 3 42 3 5 100 5 100
38 10 c30 7 45 5 65 -6 26 -14 27 -18 30 -112 l3 -98 42 3 42 3 3 85 c4 108
-3 146 -33 176 -22 22 -32 24 -129 24 -104 0 -104 0 -130 -31z"/>
<path d="M2673 4076 c-27 -24 -28 -27 -31 -145 l-4 -121 46 0 45 0 3 97 c3 94
4 98 31 113 24 13 30 13 55 0 23 -13 27 -23 30 -63 l3 -47 45 0 44 0 0 50 c0
60 -20 114 -48 129 -12 6 -59 11 -106 11 -75 0 -88 -3 -113 -24z"/>
<path d="M2310 3991 c-11 -21 -15 -467 -4 -495 4 -12 20 -16 55 -16 l49 0 0
259 c0 284 3 271 -60 271 -19 0 -33 -7 -40 -19z m70 -252 l0 -240 -22 3 -23 3
-3 238 -2 237 25 0 25 0 0 -241z"/>
<path d="M2175 3770 c-17 -19 -17 -21 0 -40 15 -16 29 -20 64 -18 45 3 46 4
49 41 l3 37 -49 0 c-36 0 -54 -5 -67 -20z"/>
<path d="M2430 3750 l0 -40 43 0 c33 0 49 6 65 23 22 23 22 24 4 40 -12 11
-36 17 -65 17 l-47 0 0 -40z"/>
<path d="M2617 3772 c-16 -17 -15 -20 6 -40 16 -15 36 -22 65 -22 l42 0 0 40
0 40 -48 0 c-35 0 -54 -5 -65 -18z"/>
<path d="M2800 3750 l0 -40 70 0 70 0 0 40 0 40 -70 0 -70 0 0 -40z"/>
<path d="M2200 3564 c0 -125 0 -126 29 -155 28 -28 33 -29 123 -29 55 0 103 5
118 13 36 18 49 67 49 190 l1 107 -45 0 -45 0 0 -103 c0 -67 -4 -107 -12 -115
-13 -13 -85 -16 -112 -6 -13 5 -16 25 -16 115 l0 109 -45 0 -45 0 0 -126z"/>
<path d="M2640 3580 c0 -119 13 -170 48 -189 12 -6 73 -11 136 -11 l116 0 0
155 0 155 -45 0 -45 0 0 -115 0 -115 -48 0 c-26 0 -53 5 -60 12 -8 8 -12 48
-12 115 l0 103 -45 0 -45 0 0 -110z"/>
<path d="M3040 3955 l0 -145 45 0 45 0 0 110 0 110 75 0 75 0 0 35 0 35 -120
0 -120 0 0 -145z"/>
<path d="M3017 3772 c-16 -17 -15 -20 6 -40 21 -20 34 -22 130 -22 l107 0 0
40 0 40 -113 0 c-98 0 -116 -3 -130 -18z"/>
<path d="M3040 3535 l0 -155 121 0 120 0 -3 38 -3 37 -72 3 -73 3 0 114 0 115
-45 0 -45 0 0 -155z"/>
<path d="M3340 4065 c0 -35 0 -35 45 -35 l44 0 3 -107 3 -108 43 -3 42 -3 0
110 0 111 50 0 50 0 0 35 0 35 -140 0 -140 0 0 -35z"/>
<path d="M3407 3772 c-16 -17 -15 -20 6 -40 31 -30 106 -31 132 -2 17 19 17
21 0 40 -25 27 -114 28 -138 2z"/>
<path d="M3430 3535 l0 -155 45 0 45 0 0 155 0 155 -45 0 -45 0 0 -155z"/>
<path d="M3680 3954 l0 -145 43 3 42 3 3 143 3 142 -46 0 -45 0 0 -146z"/>
<path d="M3900 3954 l0 -145 43 3 42 3 3 143 3 142 -46 0 -45 0 0 -146z"/>
<path d="M4120 3955 l0 -145 45 0 45 0 0 110 0 110 75 0 75 0 0 35 0 35 -120
0 -120 0 0 -145z"/>
<path d="M3655 3770 c-17 -19 -17 -21 0 -40 17 -18 31 -20 175 -20 151 0 157
1 178 23 22 23 22 24 4 40 -16 14 -43 17 -179 17 -147 0 -161 -2 -178 -20z"/>
<path d="M4097 3772 c-16 -17 -15 -20 6 -40 21 -20 34 -22 130 -22 l107 0 0
40 0 40 -113 0 c-98 0 -116 -3 -130 -18z"/>
<path d="M3680 3535 l0 -155 45 0 45 0 0 155 0 155 -45 0 -45 0 0 -155z"/>
<path d="M3900 3535 l0 -155 45 0 45 0 0 155 0 155 -45 0 -45 0 0 -155z"/>
<path d="M4120 3535 l0 -155 121 0 120 0 -3 38 -3 37 -72 3 -73 3 0 114 0 115
-45 0 -45 0 0 -155z"/>
<path d="M4460 3954 l0 -145 43 3 42 3 3 109 3 109 45 -6 c25 -2 51 -10 57
-16 8 -8 12 -48 12 -106 l0 -95 43 0 44 0 -4 126 c-4 165 -3 164 -169 164
l-119 0 0 -146z"/>
<path d="M4570 3910 l0 -100 30 0 c38 0 50 23 50 100 0 77 -12 100 -50 100
l-30 0 0 -100z m50 0 c0 -56 -3 -70 -15 -70 -12 0 -15 14 -15 70 0 56 3 70 15
70 12 0 15 -14 15 -70z"/>
<path d="M4435 3770 c-17 -19 -17 -21 0 -40 16 -18 31 -20 141 -20 l122 0 26
31 c14 17 26 35 26 40 0 5 -64 9 -148 9 -136 0 -150 -2 -167 -20z"/>
<path d="M4460 3535 l0 -155 45 0 45 0 0 155 0 155 -45 0 -45 0 0 -155z"/>
<path d="M4620 3688 c0 -5 50 -263 55 -285 5 -19 12 -23 45 -23 22 0 40 4 40
9 0 8 -45 235 -55 279 -4 18 -12 22 -45 22 -22 0 -40 -1 -40 -2z"/>
<path d="M5038 4134 c-51 -27 -68 -79 -68 -203 0 -109 0 -111 -31 -146 l-32
-36 32 -32 31 -33 0 -122 c0 -132 7 -157 55 -202 26 -24 32 -25 181 -28 l154
-3 0 198 0 198 28 -28 27 -27 3 -170 4 -170 88 0 89 0 3 175 c3 148 6 177 20
191 14 14 20 15 32 4 13 -10 16 -42 16 -191 l0 -179 90 0 90 0 0 65 0 65 60 0
60 0 0 -65 0 -65 90 0 90 0 0 177 0 177 31 33 32 32 -32 36 -31 36 0 164 0
165 -93 0 -93 0 -23 -117 c-13 -65 -26 -122 -29 -128 -3 -5 -17 47 -32 115
l-26 125 -156 3 -156 2 -12 -63 c-17 -94 -24 -96 -44 -12 l-18 74 -201 0
c-158 0 -208 -3 -229 -15z m232 -24 c41 -22 60 -69 60 -147 l0 -73 -60 0 -60
0 0 34 c0 54 -16 86 -43 86 -45 0 -47 -10 -47 -266 0 -266 3 -279 59 -272 l26
3 3 107 3 107 -28 3 c-27 3 -28 6 -31 61 l-3 57 91 0 90 0 0 -225 0 -225 -131
0 -131 0 -34 34 -34 34 0 133 c0 131 0 133 -27 161 l-27 28 27 28 c26 27 27
32 27 148 0 116 2 128 36 172 1 2 20 10 41 18 43 16 158 13 193 -6z m206 -115
c17 -72 34 -123 38 -115 3 8 16 67 29 130 l23 115 131 3 131 3 12 -58 c40
-198 56 -258 70 -258 10 0 23 43 47 155 18 85 33 156 33 158 0 1 29 2 65 2
l65 0 0 -162 0 -162 27 -28 27 -28 -27 -28 -27 -28 0 -167 0 -167 -60 0 -60 0
-1 153 c-1 154 -4 158 -29 35 l-11 -58 -50 0 c-42 0 -49 3 -54 23 -2 12 -13
58 -22 101 l-18 79 4 -166 3 -167 -66 0 -66 0 0 173 c0 161 -1 175 -20 192
-11 10 -20 23 -20 30 0 7 9 20 20 30 18 17 20 30 19 164 l-1 146 -38 -149
c-31 -120 -36 -153 -27 -173 9 -20 6 -28 -19 -54 l-29 -30 -3 -165 -4 -164
-63 0 -64 0 -3 164 c-3 164 -3 165 -31 194 -24 25 -26 32 -17 59 9 25 4 56
-29 185 -23 85 -41 157 -41 162 0 4 28 6 62 4 l63 -3 31 -130z m-296 -75 l0
-60 90 0 c53 0 90 -4 90 -10 0 -6 -42 -10 -105 -10 l-105 0 0 70 c0 56 3 70
15 70 12 0 15 -13 15 -60z m481 -103 c-13 -13 -15 11 -4 40 7 16 8 15 11 -6 2
-13 -1 -28 -7 -34z m-294 -19 c-3 -8 -6 -5 -6 6 -1 11 2 17 5 13 3 -3 4 -12 1
-19z m-192 -211 c0 -106 -19 -104 -23 1 -2 65 0 83 10 80 9 -3 13 -28 13 -81z"/>
<path d="M5059 4095 c-38 -20 -49 -63 -49 -181 l0 -104 50 0 50 0 0 93 c0 103
7 117 55 117 43 0 55 -16 55 -72 l0 -48 50 0 50 0 0 58 c0 67 -23 121 -60 139
-34 17 -168 16 -201 -2z"/>
<path d="M4987 3772 c-16 -17 -15 -20 6 -40 16 -15 36 -22 65 -22 l42 0 0 40
0 40 -48 0 c-35 0 -54 -5 -65 -18z"/>
<path d="M5170 3750 l0 -40 70 0 70 0 0 40 0 40 -70 0 -70 0 0 -40z"/>
<path d="M5012 3565 c3 -132 4 -135 31 -162 27 -27 31 -28 152 -31 l125 -4 0
166 0 166 -50 0 -50 0 0 -120 0 -120 -43 0 c-24 0 -48 5 -55 12 -8 8 -12 49
-12 120 l0 108 -51 0 -51 0 4 -135z"/>
<path d="M5340 4104 c0 -4 17 -71 37 -150 l37 -144 44 0 c41 0 44 2 40 23 -3
12 -18 79 -34 150 l-29 127 -47 0 c-27 0 -48 -3 -48 -6z"/>
<path d="M5576 4093 c-7 -22 -56 -263 -56 -274 0 -5 18 -9 40 -9 44 0 35 -19
84 177 15 56 26 106 26 112 0 6 -20 11 -44 11 -34 0 -46 -4 -50 -17z"/>
<path d="M5710 3960 l0 -149 86 0 c83 0 86 1 81 22 -3 12 -18 79 -33 150 l-27
127 -54 0 -53 0 0 -150z"/>
<path d="M6000 4107 c0 -1 -13 -65 -30 -142 -16 -77 -30 -143 -30 -147 0 -13
68 -9 73 5 4 10 6 10 6 0 1 -9 17 -13 46 -13 l45 0 0 150 0 150 -55 0 c-30 0
-55 -1 -55 -3z"/>
<path d="M5406 3773 c-4 -10 2 -25 15 -40 19 -19 32 -23 84 -23 52 0 65 4 84
23 13 15 19 30 15 40 -9 25 -189 25 -198 0z"/>
<path d="M5687 3772 c-16 -17 -15 -20 6 -40 22 -21 32 -22 218 -22 192 0 196
0 217 23 22 23 22 24 4 40 -16 15 -46 17 -224 17 -186 0 -206 -2 -221 -18z"/>
<path d="M5451 3668 c5 -18 9 -93 9 -165 l0 -133 50 0 50 0 0 143 c0 78 3 152
6 165 6 21 4 22 -59 22 l-66 0 10 -32z"/>
<path d="M5710 3535 l0 -165 51 0 52 0 -6 68 c-4 37 -7 111 -7 165 l0 97 -45
0 -45 0 0 -165z"/>
<path d="M5830 3692 c0 -4 4 -23 9 -42 5 -19 15 -61 21 -92 11 -57 12 -58 45
-58 19 0 36 4 39 9 3 5 13 42 21 82 9 41 18 82 21 91 4 15 -4 17 -75 17 -45 0
-81 -3 -81 -7z"/>
<path d="M6017 3603 c-4 -54 -7 -128 -7 -165 l0 -68 50 0 50 0 0 165 0 165
-43 0 -44 0 -6 -97z"/>
<path d="M1850 3185 l0 -25 2130 0 2130 0 0 25 0 25 -2130 0 -2130 0 0 -25z"/>
<path d="M1850 3130 c0 -7 717 -10 2130 -10 1413 0 2130 3 2130 10 0 7 -717
10 -2130 10 -1413 0 -2130 -3 -2130 -10z"/>
<path d="M2390 3070 c0 -17 88 -186 134 -258 106 -165 288 -354 456 -474 117
-83 300 -176 442 -223 699 -232 1459 -3 1909 575 90 115 184 272 219 366 l10
24 -109 0 -109 0 -32 -57 c-243 -432 -661 -720 -1136 -784 -127 -17 -404 -6
-519 19 -403 91 -736 321 -958 662 -30 47 -63 102 -73 123 l-18 37 -108 0
c-67 0 -108 -4 -108 -10z"/>
<path d="M2950 2960 l0 -120 1025 0 1025 0 0 120 0 120 -1025 0 -1025 0 0
-120z m1108 -9 c-3 -39 -6 -46 -25 -49 -21 -3 -23 0 -23 51 0 57 12 74 38 54
8 -6 12 -27 10 -56z m91 35 c0 -7 -2 -6 -6 2 -2 6 -11 12 -19 12 -10 0 -14
-13 -14 -45 0 -35 4 -45 16 -45 12 0 15 7 12 25 -3 14 -1 25 4 25 5 0 8 -12 6
-27 -2 -20 -9 -29 -25 -31 -21 -3 -23 0 -23 51 0 35 5 57 13 60 15 5 37 -11
36 -27z m-762 -33 c3 -50 1 -53 -22 -53 -24 0 -25 3 -25 56 0 52 1 55 22 52
20 -3 23 -10 25 -55z m76 50 c-28 -5 -32 -42 -5 -44 16 -1 16 -2 0 -6 -26 -7
-22 -41 5 -46 19 -4 18 -4 -5 -6 -27 -1 -28 0 -28 54 0 54 1 55 28 54 23 -2
24 -2 5 -6z m100 0 c-8 -3 -13 -24 -13 -54 0 -27 -4 -49 -10 -49 -5 0 -10 22
-10 49 0 30 -5 51 -12 54 -7 3 3 5 22 5 19 0 29 -2 23 -5z m80 0 c-8 -3 -14
-26 -15 -56 l-2 -52 -3 50 c-3 27 -10 53 -16 57 -7 4 1 7 18 7 17 0 24 -3 18
-6z m80 0 c-28 -5 -32 -42 -5 -44 16 -1 16 -2 0 -6 -26 -7 -22 -41 5 -46 19
-4 18 -4 -5 -6 -27 -1 -28 0 -28 54 0 54 1 55 28 54 23 -2 24 -2 5 -6z m103
-53 c2 -47 0 -51 -8 -27 -5 15 -13 27 -18 27 -5 0 -11 -12 -13 -27 -2 -16 -5
-2 -6 30 -1 55 0 58 22 55 20 -3 22 -9 23 -58z m137 53 c-8 -3 -14 -26 -15
-56 l-2 -52 -3 50 c-3 27 -10 53 -16 57 -7 4 1 7 18 7 17 0 24 -3 18 -6z m260
0 c-28 -5 -32 -42 -5 -44 16 -1 16 -2 0 -6 -26 -7 -22 -41 5 -46 19 -4 18 -4
-5 -6 -27 -1 -28 0 -28 54 0 54 1 55 28 54 23 -2 24 -2 5 -6z m95 0 c-14 -3
-18 -16 -20 -56 l-2 -52 -3 50 c-3 27 -10 53 -16 57 -7 4 4 7 23 7 19 -1 27
-3 18 -6z m68 -43 c8 0 14 10 14 25 0 14 5 25 10 25 6 0 10 -25 10 -55 0 -30
-4 -55 -10 -55 -5 0 -10 11 -10 25 0 34 -28 32 -33 -2 -2 -16 -4 -1 -4 32 0
33 2 48 4 33 2 -16 11 -28 19 -28z m102 43 c-10 -2 -18 -13 -18 -24 0 -11 7
-19 18 -20 16 -1 16 -2 0 -6 -10 -2 -18 -13 -18 -23 0 -10 8 -21 18 -23 13 -4
11 -5 -5 -6 -21 -1 -23 3 -23 54 0 51 2 55 23 54 16 -1 18 -2 5 -6z m100 -37
c0 -24 3 -49 6 -55 4 -6 3 -11 -3 -11 -5 0 -11 9 -13 20 -4 28 -21 27 -30 -2
-4 -14 -6 -2 -7 35 -1 54 0 57 24 57 22 0 24 -4 23 -44z"/>
<path d="M4020 2955 c0 -33 4 -45 13 -42 7 2 12 20 12 42 0 22 -5 40 -12 43
-9 2 -13 -10 -13 -43z"/>
<path d="M3350 2979 c0 -24 23 -21 28 4 2 10 -3 17 -12 17 -10 0 -16 -9 -16
-21z"/>
<path d="M3350 2930 c0 -11 7 -20 15 -20 8 0 15 9 15 20 0 11 -7 20 -15 20 -8
0 -15 -9 -15 -20z"/>
<path d="M3790 2980 c0 -13 5 -20 13 -17 6 2 12 10 12 17 0 7 -6 15 -12 18 -8
2 -13 -5 -13 -18z"/>
<path d="M4550 2980 c0 -11 7 -20 15 -20 8 0 15 9 15 20 0 11 -7 20 -15 20 -8
0 -15 -9 -15 -20z"/>
<path d="M2725 2973 c15 -27 50 -78 78 -115 l51 -68 120 1 121 1 -80 16 -80
17 -3 98 -3 97 -115 0 -116 0 27 -47z"/>
<path d="M5020 2922 l0 -99 -77 -15 -78 -16 117 -1 117 -1 44 58 c45 59 107
154 107 166 0 3 -52 6 -115 6 l-115 0 0 -98z"/>
<path d="M3555 2785 c-5 -2 -89 -25 -185 -50 -161 -44 -255 -80 -305 -119 -19
-15 -18 -15 20 -16 23 0 65 7 95 14 57 16 368 150 385 167 9 9 8 10 -10 4z"/>
<path d="M4110 2785 c0 -10 187 -241 251 -310 50 -52 139 -117 139 -100 0 28
-58 105 -134 180 -114 111 -256 239 -256 230z"/>
<path d="M4240 2760 c72 -63 325 -234 379 -256 107 -42 111 -42 66 6 -57 60
-98 86 -300 189 -135 69 -171 85 -145 61z"/>
<path d="M4386 2781 c5 -5 86 -43 179 -84 173 -76 257 -102 310 -95 l30 3 -45
29 c-25 16 -66 38 -92 48 -64 24 -394 110 -382 99z"/>
<path d="M3538 2684 c-150 -76 -199 -107 -250 -155 -58 -54 -61 -59 -33 -53
61 12 159 65 278 151 164 117 212 153 201 153 -5 -1 -93 -44 -196 -96z"/>
<path d="M3728 2688 c-57 -51 -130 -120 -164 -153 -60 -59 -122 -150 -110
-162 7 -7 68 34 117 79 28 25 192 223 262 316 24 32 -12 4 -105 -80z"/>
<path d="M3818 2617 c-83 -157 -118 -244 -118 -296 l0 -24 24 22 c13 12 36 44
50 72 28 51 139 366 134 380 -2 5 -42 -65 -90 -154z"/>
<path d="M3971 2768 c-1 -10 -8 -93 -16 -184 -12 -129 -13 -180 -4 -228 15
-84 24 -97 37 -55 22 69 24 111 12 271 -11 143 -27 247 -29 196z"/>
<path d="M4040 2773 c0 -20 109 -322 134 -370 14 -26 36 -61 50 -78 l25 -30 1
31 c0 55 -31 135 -107 278 -82 151 -103 187 -103 169z"/>
</g>
</svg>
